<svg width="80" height="80" viewBox="0 0 80 80" fill="none" xmlns="http://www.w3.org/2000/svg">
<circle cx="40" cy="40" r="40" fill="url(#paint0_linear_2007_10)"/>
<g clip-path="url(#clip0_2007_10)">
<path d="M31.25 61C25.3105 61 19 59.159 19 55.75C19 55.267 19.392 54.875 19.875 54.875C20.358 54.875 20.75 55.267 20.75 55.75C20.75 57.2113 24.7435 59.25 31.25 59.25C37.7565 59.25 41.75 57.2113 41.75 55.75C41.75 55.267 42.142 54.875 42.625 54.875C43.108 54.875 43.5 55.267 43.5 55.75C43.5 59.159 37.1895 61 31.25 61Z" fill="white"/>
<path d="M31.25 55.75C25.3105 55.75 19 53.909 19 50.5C19 50.017 19.392 49.625 19.875 49.625C20.358 49.625 20.75 50.017 20.75 50.5C20.75 51.9613 24.7435 54 31.25 54C37.7565 54 41.75 51.9613 41.75 50.5C41.75 50.017 42.142 49.625 42.625 49.625C43.108 49.625 43.5 50.017 43.5 50.5C43.5 53.909 37.1895 55.75 31.25 55.75Z" fill="white"/>
<path d="M31.25 50.5C25.3105 50.5 19 48.659 19 45.25C19 41.841 25.3105 40 31.25 40C37.1895 40 43.5 41.841 43.5 45.25C43.5 48.659 37.1895 50.5 31.25 50.5ZM31.25 41.75C24.7435 41.75 20.75 43.7887 20.75 45.25C20.75 46.7112 24.7435 48.75 31.25 48.75C37.7565 48.75 41.75 46.7112 41.75 45.25C41.75 43.7887 37.7565 41.75 31.25 41.75Z" fill="white"/>
<path d="M19.875 56.625C19.392 56.625 19 56.233 19 55.75V45.25C19 44.767 19.392 44.375 19.875 44.375C20.358 44.375 20.75 44.767 20.75 45.25V55.75C20.75 56.233 20.358 56.625 19.875 56.625Z" fill="white"/>
<path d="M42.625 56.625C42.142 56.625 41.75 56.233 41.75 55.75V45.25C41.75 44.767 42.142 44.375 42.625 44.375C43.108 44.375 43.5 44.767 43.5 45.25V55.75C43.5 56.233 43.108 56.625 42.625 56.625Z" fill="white"/>
<path d="M48.75 40C42.8105 40 36.5 38.159 36.5 34.75C36.5 34.267 36.892 33.875 37.375 33.875C37.858 33.875 38.25 34.267 38.25 34.75C38.25 36.2113 42.2435 38.25 48.75 38.25C55.2565 38.25 59.25 36.2113 59.25 34.75C59.25 34.267 59.642 33.875 60.125 33.875C60.608 33.875 61 34.267 61 34.75C61 38.159 54.6895 40 48.75 40Z" fill="white"/>
<path d="M48.75 50.5C47.7368 50.5 46.8478 50.4598 46.0323 50.3723C45.5528 50.3215 45.2028 49.891 45.2553 49.4098C45.3078 48.9285 45.7348 48.5785 46.2178 48.6328C46.9685 48.7115 47.798 48.75 48.75 48.75C55.2565 48.75 59.25 46.7113 59.25 45.25C59.25 44.767 59.642 44.375 60.125 44.375C60.608 44.375 61 44.767 61 45.25C61 48.659 54.6895 50.5 48.75 50.5Z" fill="white"/>
<path d="M48.75 55.75C47.7368 55.75 46.8478 55.7098 46.0323 55.6223C45.5528 55.5715 45.2028 55.141 45.2553 54.6598C45.306 54.1785 45.7348 53.8215 46.2178 53.8828C46.9685 53.9615 47.798 54 48.75 54C55.2565 54 59.25 51.9613 59.25 50.5C59.25 50.017 59.642 49.625 60.125 49.625C60.608 49.625 61 50.017 61 50.5C61 53.909 54.6895 55.75 48.75 55.75Z" fill="white"/>
<path d="M48.75 45.25C47.7368 45.25 46.8478 45.2098 46.0323 45.1223C45.5528 45.0715 45.2028 44.641 45.2553 44.1597C45.306 43.6785 45.7348 43.325 46.2178 43.3827C46.9685 43.4615 47.798 43.5 48.75 43.5C55.2565 43.5 59.25 41.4613 59.25 40C59.25 39.517 59.642 39.125 60.125 39.125C60.608 39.125 61 39.517 61 40C61 43.409 54.6895 45.25 48.75 45.25Z" fill="white"/>
<path d="M48.75 34.75C42.8105 34.75 36.5 32.909 36.5 29.5C36.5 26.091 42.8105 24.25 48.75 24.25C54.6895 24.25 61 26.091 61 29.5C61 32.909 54.6895 34.75 48.75 34.75ZM48.75 26C42.2435 26 38.25 28.0387 38.25 29.5C38.25 30.9612 42.2435 33 48.75 33C55.2565 33 59.25 30.9612 59.25 29.5C59.25 28.0387 55.2565 26 48.75 26Z" fill="white"/>
<path d="M37.375 35.625C36.892 35.625 36.5 35.233 36.5 34.75V29.5C36.5 29.017 36.892 28.625 37.375 28.625C37.858 28.625 38.25 29.017 38.25 29.5V34.75C38.25 35.233 37.858 35.625 37.375 35.625Z" fill="white"/>
<path d="M60.125 51.375C59.642 51.375 59.25 50.983 59.25 50.5V29.5C59.25 29.017 59.642 28.625 60.125 28.625C60.608 28.625 61 29.017 61 29.5V50.5C61 50.983 60.608 51.375 60.125 51.375Z" fill="white"/>
<path d="M19.875 31.2499C19.651 31.2499 19.427 31.1642 19.2555 30.9944C18.9142 30.6532 18.9142 30.0984 19.2555 29.7572L23.6305 25.3822C23.8982 25.1144 24.3025 25.0514 24.642 25.2177L27.5785 26.6859L33.2572 21.0072C33.5985 20.6659 34.1532 20.6659 34.4945 21.0072C34.8357 21.3484 34.8357 21.9032 34.4945 22.2444L28.3695 28.3694C28.1017 28.6337 27.6975 28.6984 27.358 28.5322L24.4232 27.0639L20.4945 30.9944C20.323 31.1642 20.099 31.2499 19.875 31.2499Z" fill="white"/>
<path d="M33.875 27.75C33.392 27.75 33 27.358 33 26.875V22.5H28.625C28.142 22.5 27.75 22.108 27.75 21.625C27.75 21.142 28.142 20.75 28.625 20.75H33.875C34.358 20.75 34.75 21.142 34.75 21.625V26.875C34.75 27.358 34.358 27.75 33.875 27.75Z" fill="white"/>
</g>
<defs>
<linearGradient id="paint0_linear_2007_10" x1="21.5" y1="1.59163e-06" x2="68.5" y2="89.5" gradientUnits="userSpaceOnUse">
<stop stop-color="#E6BF74"/>
<stop offset="1" stop-color="#00ACBD"/>
</linearGradient>
<clipPath id="clip0_2007_10">
<rect width="42" height="42" fill="white" transform="translate(19 19)"/>
</clipPath>
</defs>
</svg>
