<svg width="80" height="80" viewBox="0 0 80 80" fill="none" xmlns="http://www.w3.org/2000/svg">
<circle cx="40" cy="40" r="40" fill="url(#paint0_linear_2007_12)"/>
<path d="M45.216 24.2698C45.1777 24.1554 45.1086 24.0537 45.0163 23.9761C44.924 23.8984 44.8121 23.8476 44.6928 23.8294L41.8648 23.397L40.594 20.6899C40.5411 20.5771 40.4571 20.4817 40.3519 20.4148C40.2467 20.348 40.1246 20.3125 40 20.3125C39.8753 20.3125 39.7533 20.348 39.6481 20.4148C39.5429 20.4817 39.4589 20.5771 39.4059 20.6899L38.1352 23.397L35.3071 23.8291C35.1878 23.8473 35.0758 23.898 34.9834 23.9757C34.891 24.0534 34.8219 24.1551 34.7836 24.2696C34.7452 24.3841 34.7393 24.5069 34.7662 24.6246C34.7932 24.7422 34.8521 24.8502 34.9365 24.9365L37.0021 27.0536L36.5136 30.0507C36.4939 30.1722 36.5087 30.2967 36.5564 30.4102C36.6041 30.5237 36.6828 30.6214 36.7834 30.6923C36.884 30.7632 37.0025 30.8044 37.1254 30.8112C37.2482 30.8179 37.3706 30.79 37.4783 30.7305L40 29.3368L42.5216 30.7305C42.6294 30.7901 42.7518 30.8181 42.8748 30.8114C42.9977 30.8047 43.1163 30.7636 43.217 30.6926C43.3177 30.6217 43.3964 30.5238 43.4441 30.4103C43.4918 30.2967 43.5065 30.1721 43.4867 30.0505L42.9979 27.0533L45.0634 24.9363C45.1477 24.8499 45.2065 24.742 45.2334 24.6245C45.2603 24.5069 45.2543 24.3842 45.216 24.2698ZM41.8271 26.374C41.7554 26.4475 41.7019 26.5368 41.671 26.6347C41.6401 26.7327 41.6326 26.8365 41.6491 26.9379L41.9738 28.9282L40.3174 28.0126C40.2202 27.9589 40.111 27.9307 40 27.9307C39.8889 27.9307 39.7797 27.9589 39.6825 28.0126L38.0261 28.9282L38.3511 26.9379C38.3677 26.8365 38.3602 26.7327 38.3293 26.6347C38.2984 26.5368 38.2449 26.4475 38.1731 26.374L36.7679 24.934L38.6793 24.6419C38.7858 24.6256 38.8867 24.5834 38.973 24.5189C39.0593 24.4544 39.1284 24.3696 39.1742 24.2721L40 22.5133L40.8255 24.2721C40.8713 24.3696 40.9404 24.4544 41.0267 24.5189C41.113 24.5834 41.2139 24.6256 41.3204 24.6419L43.2318 24.934L41.8271 26.374Z" fill="white"/>
<path d="M31.5678 26.4544L28.7398 26.022L27.469 23.3149C27.4161 23.2021 27.3321 23.1067 27.2269 23.0398C27.1217 22.973 26.9996 22.9375 26.875 22.9375C26.7503 22.9375 26.6283 22.973 26.5231 23.0398C26.4179 23.1067 26.3339 23.2021 26.2809 23.3149L25.0102 26.022L22.1821 26.4544C22.0628 26.4726 21.9508 26.5233 21.8584 26.601C21.766 26.6788 21.6969 26.7805 21.6586 26.8949C21.6202 27.0094 21.6143 27.1322 21.6412 27.2499C21.6682 27.3676 21.7271 27.4755 21.8115 27.5618L23.8771 29.6789L23.3886 32.6757C23.3689 32.7972 23.3837 32.9217 23.4314 33.0352C23.4791 33.1487 23.5578 33.2464 23.6584 33.3173C23.759 33.3882 23.8775 33.4294 24.0004 33.4362C24.1232 33.4429 24.2456 33.415 24.3533 33.3555L26.875 31.9618L29.3966 33.3555C29.5044 33.4151 29.6268 33.4431 29.7498 33.4364C29.8727 33.4297 29.9913 33.3886 30.092 33.3176C30.1927 33.2467 30.2714 33.1488 30.3191 33.0353C30.3668 32.9217 30.3815 32.7971 30.3617 32.6755L29.8729 29.6783L31.9384 27.5613C32.0228 27.4749 32.0817 27.367 32.1087 27.2493C32.1357 27.1317 32.1297 27.0088 32.0914 26.8944C32.0531 26.7799 31.9839 26.6782 31.8916 26.6005C31.7992 26.5227 31.6872 26.472 31.5678 26.4538V26.4544ZM28.7021 28.999C28.6304 29.0725 28.5769 29.1618 28.546 29.2597C28.5151 29.3577 28.5076 29.4615 28.5241 29.5629L28.8488 31.5532L27.1924 30.6376C27.0952 30.5839 26.986 30.5557 26.875 30.5557C26.7639 30.5557 26.6547 30.5839 26.5575 30.6376L24.9011 31.5532L25.2261 29.5629C25.2427 29.4615 25.2352 29.3577 25.2043 29.2597C25.1734 29.1618 25.1199 29.0725 25.0481 28.999L23.6429 27.559L25.5543 27.2669C25.6608 27.2506 25.7617 27.2084 25.848 27.1439C25.9343 27.0794 26.0034 26.9946 26.0492 26.8971L26.875 25.1383L27.7005 26.8971C27.7463 26.9946 27.8154 27.0794 27.9017 27.1439C27.988 27.2084 28.0889 27.2506 28.1954 27.2669L30.1068 27.559L28.7021 28.999Z" fill="white"/>
<path d="M58.341 26.8948C58.3027 26.7804 58.2336 26.6787 58.1413 26.6011C58.049 26.5234 57.9371 26.4726 57.8178 26.4544L54.9898 26.022L53.719 23.3149C53.6661 23.2021 53.5821 23.1067 53.4769 23.0398C53.3717 22.973 53.2496 22.9375 53.125 22.9375C53.0003 22.9375 52.8783 22.973 52.7731 23.0398C52.6679 23.1067 52.5839 23.2021 52.5309 23.3149L51.2602 26.022L48.4321 26.4541C48.3128 26.4723 48.2008 26.523 48.1084 26.6007C48.016 26.6784 47.9469 26.7801 47.9086 26.8946C47.8702 27.0091 47.8643 27.1319 47.8912 27.2496C47.9182 27.3672 47.9771 27.4752 48.0615 27.5615L50.1271 29.6786L49.6386 32.6757C49.6189 32.7972 49.6337 32.9217 49.6814 33.0352C49.7291 33.1487 49.8078 33.2464 49.9084 33.3173C50.009 33.3882 50.1275 33.4294 50.2504 33.4362C50.3732 33.4429 50.4956 33.415 50.6033 33.3555L53.125 31.9618L55.6466 33.3555C55.7544 33.4151 55.8768 33.4431 55.9998 33.4364C56.1227 33.4297 56.2413 33.3886 56.342 33.3176C56.4427 33.2467 56.5214 33.1488 56.5691 33.0353C56.6168 32.9217 56.6315 32.7971 56.6117 32.6755L56.1229 29.6783L58.1884 27.5613C58.2727 27.4749 58.3315 27.367 58.3584 27.2495C58.3853 27.1319 58.3793 27.0092 58.341 26.8948ZM54.9521 28.999C54.8804 29.0725 54.8269 29.1618 54.796 29.2597C54.7651 29.3577 54.7576 29.4615 54.7741 29.5629L55.0988 31.5532L53.4424 30.6376C53.3452 30.5839 53.236 30.5557 53.125 30.5557C53.0139 30.5557 52.9047 30.5839 52.8075 30.6376L51.1511 31.5532L51.4758 29.5629C51.4924 29.4615 51.4849 29.3577 51.4539 29.2597C51.423 29.1618 51.3695 29.0725 51.2978 28.999L49.8929 27.559L51.8043 27.2669C51.9108 27.2506 52.0117 27.2084 52.098 27.1439C52.1843 27.0794 52.2534 26.9946 52.2992 26.8971L53.125 25.1383L53.9505 26.8971C53.9963 26.9946 54.0654 27.0794 54.1517 27.1439C54.238 27.2084 54.3389 27.2506 54.4454 27.2669L56.3568 27.559L54.9521 28.999Z" fill="white"/>
<path d="M28.8438 55.0936C28.8437 55.1883 28.8642 55.2818 28.9038 55.3678C28.9433 55.4538 29.001 55.5303 29.0729 55.5919C29.268 55.7591 33.9209 59.6874 40 59.6874C46.0791 59.6874 50.732 55.7591 50.9271 55.5919C50.999 55.5303 51.0567 55.4538 51.0962 55.3678C51.1358 55.2818 51.1563 55.1883 51.1562 55.0936C51.1562 50.0143 47.7437 45.7175 43.0916 44.3735C44.1877 43.7002 45.0339 42.6874 45.5018 41.4891C45.9696 40.2909 46.0335 38.9726 45.6836 37.7347C45.3337 36.4968 44.5893 35.407 43.5634 34.6309C42.5376 33.8548 41.2864 33.4348 40 33.4348C38.7136 33.4348 37.4624 33.8548 36.4366 34.6309C35.4107 35.407 34.6663 36.4968 34.3164 37.7347C33.9665 38.9726 34.0304 40.2909 34.4982 41.4891C34.9661 42.6874 35.8123 43.7002 36.9084 44.3735C32.2562 45.7175 28.8438 50.0143 28.8438 55.0936ZM35.4062 39.3436C35.4062 38.4351 35.6757 37.5469 36.1804 36.7915C36.6852 36.036 37.4026 35.4473 38.242 35.0996C39.0814 34.7519 40.0051 34.6609 40.8962 34.8382C41.7873 35.0154 42.6058 35.4529 43.2483 36.0954C43.8907 36.7378 44.3282 37.5563 44.5055 38.4474C44.6827 39.3385 44.5918 40.2622 44.2441 41.1016C43.8964 41.941 43.3076 42.6584 42.5522 43.1632C41.7967 43.668 40.9086 43.9374 40 43.9374C38.7821 43.936 37.6144 43.4516 36.7532 42.5904C35.892 41.7292 35.4076 40.5616 35.4062 39.3436ZM40 45.2499C42.5558 45.2529 45.0106 46.2487 46.8462 48.0271C48.6819 49.8055 49.7549 52.2274 49.8389 54.7819C48.8504 55.5448 44.8546 58.3749 40 58.3749C35.1454 58.3749 31.1496 55.5448 30.1611 54.7819C30.2451 52.2274 31.3181 49.8055 33.1538 48.0271C34.9894 46.2487 37.4442 45.2529 40 45.2499Z" fill="white"/>
<defs>
<linearGradient id="paint0_linear_2007_12" x1="21.5" y1="1.59163e-06" x2="68.5" y2="89.5" gradientUnits="userSpaceOnUse">
<stop stop-color="#E6BF74"/>
<stop offset="1" stop-color="#00ACBD"/>
</linearGradient>
</defs>
</svg>
