<svg width="80" height="80" viewBox="0 0 80 80" fill="none" xmlns="http://www.w3.org/2000/svg">
<circle cx="40" cy="40" r="40" fill="url(#paint0_linear_2007_11)"/>
<g clip-path="url(#clip0_2007_11)">
<path d="M54.8492 25.1508C50.8828 21.1843 45.6093 19 40 19C34.3907 19 29.1171 21.1843 25.1508 25.1508C21.1844 29.1171 19 34.3906 19 39.9999C19 45.6092 21.1844 50.8828 25.1508 54.8491C29.1172 58.8155 34.3907 60.9998 40 60.9998C45.6092 60.9998 50.8829 58.8155 54.8491 54.8491C58.8157 50.8828 61 45.6091 61 39.9999C61 34.3907 58.8156 29.1171 54.8492 25.1508ZM59.7298 39.2472H54.022C53.751 34.1417 50.7404 29.7513 46.4369 27.5224L48.9996 22.4273C55.1644 25.5973 59.4536 31.9175 59.7298 39.2472ZM40 20.2543C42.7942 20.2543 45.454 20.8391 47.8654 21.8904L45.2975 26.9961C43.662 26.3274 41.8734 25.9576 40 25.9576C34.6799 25.9576 30.0414 28.9315 27.6594 33.3044L22.1775 31.5047C25.3589 24.857 32.1518 20.2543 40 20.2543ZM27.4719 42.5778C27.4025 42.2385 27.0713 42.0203 26.7318 42.0892C26.3924 42.1586 26.1736 42.49 26.243 42.8294C26.882 45.952 28.5954 48.7953 31.0675 50.8355C33.412 52.7703 36.34 53.8917 39.3728 54.028V59.7347C28.7742 59.4021 20.2543 50.6778 20.2543 39.9999C20.2543 37.4067 20.7578 34.9292 21.6705 32.6585L27.1053 34.4426C26.3676 36.1479 25.9577 38.0268 25.9577 39.9999C25.9577 40.3463 26.2385 40.6271 26.5849 40.6271C26.9314 40.6271 27.2121 40.3464 27.2121 39.9999C27.2121 32.9487 32.9488 27.212 40.0001 27.212C47.0513 27.212 52.7879 32.9487 52.7879 39.9999C52.7879 47.0512 47.0512 52.7878 40 52.7878C33.9513 52.7878 28.6826 48.4939 27.4719 42.5778ZM40.6272 59.7346V54.0275C47.914 53.7055 53.7745 47.8045 54.0323 40.5016H59.7393C59.4773 50.9498 51.0593 59.4073 40.6272 59.7346Z" fill="white"/>
<path d="M34.6141 37.1738H32.1055C31.7592 37.1738 31.4783 37.4545 31.4783 37.801V44.2569C31.4783 44.6032 31.7591 44.8841 32.1055 44.8841H34.6141C34.9605 44.8841 35.2414 44.6034 35.2414 44.2569V37.801C35.2414 37.4545 34.9605 37.1738 34.6141 37.1738ZM33.9869 43.6296H32.7327V38.4281H33.9869V43.6296Z" fill="white"/>
<path d="M48.4112 38.8633H45.9027C45.5563 38.8633 45.2755 39.144 45.2755 39.4905V44.2568C45.2755 44.6032 45.5563 44.884 45.9027 44.884H48.4112C48.7577 44.884 49.0385 44.6033 49.0385 44.2568V39.4905C49.0385 39.144 48.7577 38.8633 48.4112 38.8633ZM47.7841 43.6296H46.5299V40.1177H47.7841V43.6296Z" fill="white"/>
<path d="M43.9733 37.1738H41.4647C41.1183 37.1738 40.8375 37.4545 40.8375 37.801V44.2569C40.8375 44.6032 41.1183 44.8841 41.4647 44.8841H43.9733C44.3197 44.8841 44.6005 44.6034 44.6005 44.2569V37.801C44.6005 37.4545 44.3197 37.1738 43.9733 37.1738ZM43.3461 43.6296H42.0918V38.4281H43.3461V43.6296Z" fill="white"/>
<path d="M39.2551 34.0969H36.7465C36.4001 34.0969 36.1193 34.3776 36.1193 34.7241V44.2567C36.1193 44.6032 36.4001 44.884 36.7465 44.884H39.2551C39.6014 44.884 39.8823 44.6033 39.8823 44.2568V34.7241C39.8822 34.3777 39.6014 34.0969 39.2551 34.0969ZM38.6279 43.6296H37.3736V35.3513H38.6279V43.6296Z" fill="white"/>
</g>
<defs>
<linearGradient id="paint0_linear_2007_11" x1="21.5" y1="1.59163e-06" x2="68.5" y2="89.5" gradientUnits="userSpaceOnUse">
<stop stop-color="#E6BF74"/>
<stop offset="1" stop-color="#00ACBD"/>
</linearGradient>
<clipPath id="clip0_2007_11">
<rect width="42" height="42" fill="white" transform="translate(19 19)"/>
</clipPath>
</defs>
</svg>
