<svg width="80" height="80" viewBox="0 0 80 80" fill="none" xmlns="http://www.w3.org/2000/svg">
<circle cx="40" cy="40" r="40" fill="url(#paint0_linear_2007_9)"/>
<g clip-path="url(#clip0_2007_9)">
<path d="M59.064 59.3594H57.2648V33.2354C57.2648 32.0195 56.2755 31.0303 55.0596 31.0303H51.0381C49.8222 31.0303 48.8329 32.0196 48.8329 33.2354V59.3594H44.2645V45.0716C44.2645 43.8557 43.2752 42.8665 42.0593 42.8665H38.0378C36.8218 42.8665 35.8326 43.8558 35.8326 45.0716V59.3594H31.2641V51.9599C31.2641 50.7439 30.2749 49.7547 29.059 49.7547H25.0374C23.8215 49.7547 22.8322 50.744 22.8322 51.9599V59.3594H20.936C20.4829 59.3594 20.1157 59.7267 20.1157 60.1798C20.1157 60.6328 20.4829 61.0001 20.936 61.0001H59.064C59.517 61.0001 59.8843 60.6328 59.8843 60.1798C59.8843 59.7267 59.517 59.3594 59.064 59.3594ZM29.6234 59.3594H24.4728V51.9599C24.4728 51.6486 24.726 51.3954 25.0373 51.3954H29.0588C29.3701 51.3954 29.6234 51.6486 29.6234 51.9599V59.3594ZM42.6238 59.3594H37.4732V45.0716C37.4732 44.7603 37.7264 44.5071 38.0377 44.5071H42.0592C42.3704 44.5071 42.6238 44.7603 42.6238 45.0716V59.3594ZM55.6241 59.3594H50.4736V33.2354C50.4736 32.9241 50.7268 32.6709 51.0381 32.6709H55.0596C55.3709 32.6709 55.6241 32.9241 55.6241 33.2354V59.3594Z" fill="white"/>
<path d="M57.2628 19.8626C57.2743 19.6388 57.1956 19.4111 57.0246 19.2402C56.8537 19.0692 56.626 18.9904 56.4022 19.002C56.389 19.0014 56.3759 19 56.3625 19H51.3996C50.9465 19 50.5793 19.3673 50.5793 19.8203C50.5793 20.2734 50.9465 20.6406 51.3996 20.6406H54.464L46.3546 28.7501L43.2965 25.6919C43.1427 25.5381 42.934 25.4517 42.7165 25.4517C42.4989 25.4517 42.2902 25.5381 42.1364 25.6919L27.3898 40.4387C27.0694 40.759 27.0694 41.2785 27.3898 41.5989C27.55 41.7589 27.7599 41.839 27.9698 41.839C28.1797 41.839 28.3897 41.7589 28.5498 41.5987L42.7165 27.432L45.7746 30.4901C46.0949 30.8104 46.6144 30.8104 46.9348 30.4901L55.6242 21.8008V24.5743C55.6242 25.0273 55.9914 25.3946 56.4445 25.3946C56.8975 25.3946 57.2648 25.0273 57.2648 24.5743V19.9023C57.2648 19.889 57.2634 19.8759 57.2628 19.8626Z" fill="white"/>
<path d="M25.2048 44.7012C25.6579 44.7012 26.0251 44.3339 26.0251 43.8809C26.0251 43.4278 25.6579 43.0605 25.2048 43.0605C24.7518 43.0605 24.3845 43.4278 24.3845 43.8809C24.3845 44.3339 24.7518 44.7012 25.2048 44.7012Z" fill="white"/>
</g>
<defs>
<linearGradient id="paint0_linear_2007_9" x1="21.5" y1="1.59163e-06" x2="68.5" y2="89.5" gradientUnits="userSpaceOnUse">
<stop stop-color="#E6BF74"/>
<stop offset="1" stop-color="#00ACBD"/>
</linearGradient>
<clipPath id="clip0_2007_9">
<rect width="42" height="42" fill="white" transform="translate(19 19)"/>
</clipPath>
</defs>
</svg>
